<svg xmlns="http://www.w3.org/2000/svg" viewBox="0 0 67.13 36.87"><defs><style>.cls-1{isolation:isolate;}.cls-2{fill:#e6346c;}.cls-3{fill:#bb346b;}.cls-4{fill:#822952;}.cls-5{fill:#cc77b1;mix-blend-mode:multiply;opacity:0.6;}.cls-6{fill:#db8aaf;}.cls-7{fill:#fdf7b7;mix-blend-mode:soft-light;}</style></defs><g class="cls-1"><g id="Layer_1" data-name="Layer 1"><path class="cls-2" d="M209.63,249.92s7.2,26,30.3,26c23.5,0,31-24.82,31-24.82s-8.25,5.63-29.66,5.63S209.63,249.92,209.63,249.92Z" transform="translate(-207.72 -241.41)"/><path class="cls-3" d="M269.46,251.81a94,94,0,0,1-28.17,4.88c-10.3,0-20.37-2.78-25.44-4.42l-.35-.11-1.23-.43-1.2-.42-.63-.24.11-.06c1-.55,9.37-9.29,26.81-9.58.59,0,1.2,0,1.84,0s1.24,0,1.83,0c16,.31,24,8.92,26,10.08Z" transform="translate(-207.72 -241.41)"/><path class="cls-4" d="M207.93,248.85l-.21-.13Z" transform="translate(-207.72 -241.41)"/><path class="cls-4" d="M241.28,255.66c-21.41.24-31.86-5.86-33.35-6.81,12.88,8.6,33.28,11,33.28,11s20.54-2.4,33.43-11C273.15,249.8,262.69,255.9,241.28,255.66Z" transform="translate(-207.72 -241.41)"/><path class="cls-4" d="M274.64,248.85l.21-.13Z" transform="translate(-207.72 -241.41)"/><path class="cls-5" d="M219.55,267S228,278.28,241,278.28,261.12,267,261.12,267s-7.06,6.65-20.84,6.65S219.55,267,219.55,267Z" transform="translate(-207.72 -241.41)"/><path class="cls-5" d="M212.55,251c1-.55,9.37-9.29,26.81-9.58-14.68.46-23,10.47-23.51,10.84l0,0-.32-.14-1.23-.43-1.2-.42-.63-.24Z" transform="translate(-207.72 -241.41)"/><path class="cls-5" d="M269,251.51l-2.25.79A33.64,33.64,0,0,0,243,241.43C259.05,241.74,267.07,250.35,269,251.51Z" transform="translate(-207.72 -241.41)"/><path class="cls-6" d="M226.54,255.08s15,2.95,30.5,0c0,0-5.68,3.28-15.25,3.79S226.54,255.08,226.54,255.08Z" transform="translate(-207.72 -241.41)"/><path class="cls-7" d="M245.28,261.58s1.65,2.19,2,6.77l3.91-.61s.14-2.68-2.53-7Z" transform="translate(-207.72 -241.41)"/><path class="cls-7" d="M251.44,259.85a13,13,0,0,1,2.67,7.16h.9s.54-3.41-2.58-7.16Z" transform="translate(-207.72 -241.41)"/></g></g></svg>